<svg width="1500" height="1500" viewBox="0 0 1500 1500" fill="none" xmlns="http://www.w3.org/2000/svg">
<g filter="url(#filter0_f_102_4)">
<path d="M513.84 1064.92C508.72 1048.92 500.72 1023.64 489.84 989.08C479.6 954.52 467.76 915.48 454.32 871.96C440.88 828.44 426.8 783 412.08 735.64C397.36 687.64 383.28 642.2 369.84 599.32C356.4 555.8 343.92 516.76 332.4 482.2C321.52 447.64 312.88 422.04 306.48 405.4C314.8 406.68 322.8 407.96 330.48 409.24C338.16 409.88 346.16 410.2 354.48 410.2C362.8 410.2 370.8 409.88 378.48 409.24C386.16 407.96 394.16 406.68 402.48 405.4C414.64 454.04 426.48 499.8 438 542.68C449.52 584.92 461.68 628.12 474.48 672.28C487.92 715.8 502 761.88 516.72 810.52C532.08 858.52 549.36 912.92 568.56 973.72H570.48C576.24 956.44 584.24 932.76 594.48 902.68C604.72 871.96 615.92 838.36 628.08 801.88C640.24 764.76 653.04 726.36 666.48 686.68C679.92 647 692.4 609.24 703.92 573.4C715.44 536.92 725.68 503.96 734.64 474.52C743.6 444.44 750 421.4 753.84 405.4C766.64 408.6 777.2 410.2 785.52 410.2C793.84 410.2 804.4 408.6 817.2 405.4C821.68 422.68 828.4 446.36 837.36 476.44C846.96 506.52 857.52 540.12 869.04 577.24C880.56 613.72 892.72 651.8 905.52 691.48C918.96 731.16 931.76 769.24 943.92 805.72C956.08 842.2 966.96 875.16 976.56 904.6C986.8 934.04 994.8 957.08 1000.56 973.72H1002.48C1006.96 959.64 1013.68 937.88 1022.64 908.44C1032.24 878.36 1042.8 844.76 1054.32 807.64C1066.48 769.88 1078.64 730.52 1090.8 689.56C1103.6 647.96 1115.44 608.6 1126.32 571.48C1137.84 533.72 1147.76 500.12 1156.08 470.68C1165.04 441.24 1171.12 419.48 1174.32 405.4C1180.08 406.68 1185.52 407.96 1190.64 409.24C1196.4 409.88 1202.16 410.2 1207.92 410.2C1213.68 410.2 1219.12 409.88 1224.24 409.24C1230 407.96 1235.76 406.68 1241.52 405.4C1235.12 420.12 1225.84 444.44 1213.68 478.36C1201.52 512.28 1187.76 551 1172.4 594.52C1157.68 638.04 1142 684.12 1125.36 732.76C1109.36 781.4 1093.68 827.8 1078.32 871.96C1063.6 915.48 1050.16 954.84 1038 990.04C1026.48 1024.6 1017.84 1049.56 1012.08 1064.92C1001.84 1063.64 990.96 1063 979.44 1063C967.92 1063 957.04 1063.64 946.8 1064.92C918 975.96 889.52 886.68 861.36 797.08C833.2 706.84 802.8 613.72 770.16 517.72H768.24C763.12 532.44 756.08 552.28 747.12 577.24C738.8 601.56 729.2 629.08 718.32 659.8C708.08 690.52 696.88 723.48 684.72 758.68C672.56 793.88 660.4 829.4 648.24 865.24C636.08 901.08 624.24 936.28 612.72 970.84C601.2 1005.4 590.64 1036.76 581.04 1064.92C570.8 1063.64 559.6 1063 547.44 1063C535.28 1063 524.08 1063.64 513.84 1064.92Z" fill="#0F70A7"/>
</g>
<defs>
<filter id="filter0_f_102_4" x="302.48" y="401.4" width="943.04" height="667.52" filterUnits="userSpaceOnUse" color-interpolation-filters="sRGB">
<feFlood flood-opacity="0" result="BackgroundImageFix"/>
<feBlend mode="normal" in="SourceGraphic" in2="BackgroundImageFix" result="shape"/>
<feGaussianBlur stdDeviation="2" result="effect1_foregroundBlur_102_4"/>
</filter>
</defs>
</svg>
